<?xml version="1.0" standalone="no"?>
<!DOCTYPE svg PUBLIC "-//W3C//DTD SVG 20010904//EN"
 "http://www.w3.org/TR/2001/REC-SVG-20010904/DTD/svg10.dtd">
<svg version="1.0" xmlns="http://www.w3.org/2000/svg"
 width="247.067354pt" height="213.109582pt" viewBox="0 0 247.067354 213.109582"
 preserveAspectRatio="xMidYMid meet">
<metadata>
Created by potrace 1.12, written by Peter Selinger 2001-2015
</metadata>
<g transform="translate(-4.009735,234.000000) scale(0.100000,-0.100000)"
fill="#000000" stroke="none">
<path d="M210 2045 l0 -295 50 0 50 0 0 245 0 245 250 0 250 0 0 -245 0 -245
50 0 50 0 0 295 0 295 -350 0 -350 0 0 -295z"/>
<path d="M1120 2291 l0 -50 -52 -3 -53 -3 -3 -97 -3 -97 53 -3 53 -3 3 -52 3
-53 -56 0 -56 0 3 -87 3 -88 53 -3 52 -3 0 90 0 90 48 3 47 3 3 203 2 202 -50
0 -50 0 0 -49z"/>
<path d="M1320 2240 l0 -100 50 0 50 0 0 -50 0 -50 -50 0 -50 0 0 -55 0 -55
50 0 50 0 0 -50 0 -50 -50 0 -50 0 0 -40 0 -40 100 0 100 0 0 90 0 90 -50 0
-50 0 0 55 0 55 50 0 50 0 0 50 0 50 -50 0 -50 0 0 50 0 50 50 0 50 0 0 50 0
50 -100 0 -100 0 0 -100z"/>
<path d="M1620 2045 l0 -295 50 0 50 0 2 243 3 242 253 3 252 2 0 -245 0 -245
50 0 50 0 0 295 0 295 -355 0 -355 0 0 -295z"/>
<path d="M410 1985 l0 -155 150 0 150 0 0 155 0 155 -150 0 -150 0 0 -155z"/>
<path d="M1824 2127 c-2 -7 -3 -76 -2 -152 l3 -140 150 0 150 0 0 150 0 150
-148 3 c-115 2 -149 0 -153 -11z"/>
<path d="M245 1541 c-120 -30 -205 -142 -205 -272 0 -191 176 -322 352 -262
56 19 58 19 74 1 12 -13 31 -18 68 -18 l50 0 -39 40 -38 39 34 68 c28 56 34
78 34 132 0 180 -162 313 -330 272z m100 -92 c78 -21 125 -88 125 -177 0 -50
-16 -112 -29 -112 -5 0 -16 9 -26 20 -13 15 -31 20 -67 20 l-49 0 36 -42 c19
-24 35 -47 36 -53 0 -16 -63 -25 -105 -14 -160 42 -167 299 -11 354 49 17 42
17 90 4z"/>
<path d="M660 1271 l0 -281 55 0 55 0 0 95 0 95 58 0 57 0 50 -86 c28 -47 55
-90 62 -95 6 -6 34 -9 62 -7 l51 3 -61 102 -61 103 31 26 c44 37 64 80 64 140
0 62 -22 104 -76 148 l-39 31 -154 3 -154 4 0 -281z m291 160 c21 -22 29 -39
29 -66 0 -27 -8 -44 -29 -66 -27 -27 -35 -29 -105 -29 l-76 0 0 95 0 95 76 0
c70 0 78 -2 105 -29z"/>
<path d="M1289 1534 c-83 -25 -131 -104 -115 -187 11 -57 57 -89 189 -127 84
-25 119 -54 110 -90 -9 -32 -40 -43 -112 -38 -44 3 -83 14 -117 31 l-51 26
-19 -37 c-10 -20 -20 -40 -22 -44 -6 -12 91 -55 153 -68 67 -14 152 -7 196 15
94 49 115 172 41 240 -26 24 -58 37 -174 69 -64 18 -88 37 -88 70 0 27 25 51
63 60 29 7 143 -20 153 -35 11 -19 31 -7 47 27 23 47 13 58 -70 84 -75 23
-120 24 -184 4z"/>
<path d="M1755 1385 c-109 -59 -149 -184 -93 -292 36 -72 97 -106 188 -106 60
0 77 4 116 29 26 16 53 39 61 51 14 21 13 22 -27 33 -38 10 -43 9 -71 -14 -44
-37 -108 -36 -148 2 -16 15 -32 37 -36 50 l-6 22 162 0 161 0 -4 60 c-5 63
-32 110 -92 154 -37 28 -167 35 -211 11z m171 -89 c59 -59 50 -66 -77 -66
-110 0 -110 0 -104 23 12 41 61 77 106 77 33 0 47 -6 75 -34z"/>
<path d="M2220 1378 c-26 -14 -57 -41 -75 -66 -27 -39 -30 -52 -30 -117 0 -65
3 -78 30 -117 54 -75 140 -108 232 -88 50 12 106 48 123 80 9 17 5 21 -37 34
-45 13 -49 12 -70 -6 -11 -11 -39 -22 -60 -25 -32 -4 -45 0 -71 22 -41 34 -59
90 -43 137 26 78 100 108 162 65 33 -23 37 -23 82 -10 l48 14 -21 29 c-49 69
-182 92 -270 48z"/>
<path d="M210 505 l0 -295 350 0 350 0 0 295 0 295 -50 0 -50 0 0 -240 0 -240
-250 0 -250 0 0 240 0 240 -50 0 -50 0 0 -295z"/>
<path d="M1220 660 l0 -140 -49 0 -50 0 -3 48 -3 47 -50 0 -50 0 -3 -47 -3
-48 55 0 56 0 0 -49 0 -50 -52 -3 -53 -3 0 -100 0 -100 50 0 50 0 3 103 3 102
49 0 50 0 0 50 0 50 100 0 100 0 0 -50 0 -50 50 0 50 0 0 -50 0 -50 -100 0
-100 0 0 -55 0 -55 100 0 100 0 0 55 0 55 100 0 100 0 0 50 0 50 -100 0 -100
0 0 50 0 50 -50 0 -50 0 0 100 0 100 100 0 100 0 0 -50 0 -50 50 0 50 0 0 -50
0 -50 50 0 50 0 0 -50 0 -50 155 0 155 0 0 50 0 50 50 0 50 0 0 -50 0 -50 50
0 50 0 0 150 0 150 -50 0 -50 0 0 -50 0 -50 -50 0 -50 0 0 -50 0 -50 -50 0
-50 0 0 50 0 50 -50 0 -49 0 -3 88 -3 87 -102 3 -103 3 0 -41 0 -40 -50 0 -50
0 0 40 0 40 -200 0 -200 0 0 -140z m710 -90 l0 -50 -55 0 -55 0 0 43 c0 24 3
47 7 50 3 4 28 7 55 7 l48 0 0 -50z"/>
<path d="M410 570 l0 -150 150 0 150 0 0 150 0 150 -150 0 -150 0 0 -150z"/>
<path d="M1824 306 c-3 -7 -4 -31 -2 -52 l3 -39 100 0 100 0 0 50 0 50 -98 3
c-77 2 -98 0 -103 -12z"/>
<path d="M2130 265 l0 -56 48 3 47 3 0 50 0 50 -47 3 -48 3 0 -56z"/>
</g>
</svg>
